<svg width="24" height="24" viewBox="0 0 24 24" fill="none" xmlns="http://www.w3.org/2000/svg">
<path fill-rule="evenodd" clip-rule="evenodd" d="M15 1C15 0.447715 14.5523 0 14 0H10C9.44772 0 9 0.447715 9 1V8C9 8.55229 8.55229 9 8 9H1C0.447715 9 0 9.44772 0 10V14C0 14.5523 0.447715 15 1 15H8C8.55229 15 9 15.4477 9 16V23C9 23.5523 9.44772 24 10 24H14C14.5523 24 15 23.5523 15 23V16C15 15.4477 15.4477 15 16 15H23C23.5523 15 24 14.5523 24 14V10C24 9.44772 23.5523 9 23 9H16C15.4477 9 15 8.55229 15 8V1Z" fill="white"/>
</svg>
