<svg width="32" height="20" viewBox="0 0 32 20" fill="none" xmlns="http://www.w3.org/2000/svg">
<path d="M30 0H2C1.46957 0 0.960859 0.210714 0.585786 0.585787C0.210714 0.96086 0 1.46957 0 2V18C0 18.5304 0.210714 19.0391 0.585786 19.4142C0.960859 19.7893 1.46957 20 2 20H30C30.5304 20 31.0391 19.7893 31.4142 19.4142C31.7893 19.0391 32 18.5304 32 18V2C32 1.46957 31.7893 0.96086 31.4142 0.585787C31.0391 0.210714 30.5304 0 30 0V0ZM2 18V13.15C3.25008 13.242 4.42439 13.7842 5.30519 14.6761C6.18599 15.5679 6.71353 16.7489 6.79 18H2ZM2 6.85V2H6.79C6.71353 3.25113 6.18599 4.43209 5.30519 5.32393C4.42439 6.21576 3.25008 6.75796 2 6.85V6.85ZM16 17.15C12.53 17.15 9.7 13.94 9.7 10C9.7 6.06 12.53 2.85 16 2.85C19.47 2.85 22.3 6.06 22.3 10C22.3 13.94 19.47 17.15 16 17.15ZM30 18H25.25C25.3253 16.7552 25.8472 15.5794 26.7198 14.6884C27.5923 13.7975 28.7571 13.2512 30 13.15V18ZM30 6.85C28.7571 6.74876 27.5923 6.20251 26.7198 5.31156C25.8472 4.42062 25.3253 3.24479 25.25 2H30V6.85Z" fill="white"/>
<path d="M16 14.72C18.2091 14.72 20 12.6068 20 10C20 7.39325 18.2091 5.28003 16 5.28003C13.7909 5.28003 12 7.39325 12 10C12 12.6068 13.7909 14.72 16 14.72Z" fill="white"/>
</svg>
