<svg width="76" height="135" viewBox="0 0 76 135" fill="none" xmlns="http://www.w3.org/2000/svg">
<path d="M38.6719 105.75C23.2927 105.75 17.2456 98.85 16.4244 90H0C0.895874 106.425 13.1395 115.65 27.4735 118.725V135H49.8703V118.875C64.4283 116.1 76 107.625 76 92.25C76 70.95 57.8585 63.675 40.9116 59.25C23.9646 54.825 18.5147 50.25 18.5147 43.125C18.5147 34.95 26.055 29.25 38.6719 29.25C51.9607 29.25 56.888 35.625 57.3359 45H73.835C73.3124 32.1 65.4735 20.25 49.8703 16.425V0H27.4735V16.2C12.9902 19.35 1.34381 28.8 1.34381 43.275C1.34381 60.6 15.6031 69.225 36.4322 74.25C55.0963 78.75 58.8291 85.35 58.8291 92.325C58.8291 97.5 55.1709 105.75 38.6719 105.75Z" fill="#CDCDCD" fill-opacity="0.15"/>
</svg>
